<?xml version="1.0" encoding="utf-8"?>
<!-- Generator: Adobe Illustrator 25.2.0, SVG Export Plug-In . SVG Version: 6.00 Build 0)  -->
<svg version="1.1" id="Layer_1" xmlns="http://www.w3.org/2000/svg" xmlns:xlink="http://www.w3.org/1999/xlink" x="0px" y="0px"
	 viewBox="0 0 68 74" style="enable-background:new 0 0 68 74;" xml:space="preserve">
<style type="text/css">
	.st0{fill:#FFFFFF;}
</style>
<path class="st0" d="M34.46,27.64V27.5c0-0.23,0.2-0.42,0.44-0.42c0.19,0,0.38,0,0.56,0.01c0.28,0.02,0.41-0.08,0.51-0.34
	c0.62-1.73,1.26-3.45,1.9-5.18c0.03-0.09,0.08-0.19,0.14-0.33c1.16,0.44,2.11,1.09,2.93,1.97c0.27,0.29,0.78,0.12,0.78-0.27v-3.31
	c0.09-0.01,0.14-0.03,0.19-0.03c2.44,0,4.88-0.06,7.32,0.02c6.66,0.22,11.92,4.65,12.92,10.96c0.68,4.27-0.21,8.23-3.19,11.59
	c-2.11,2.38-4.85,3.72-8.07,4.16c-1.05,0.14-2.12,0.18-3.18,0.19c-2.56,0.02-5.12,0.02-7.68-0.01c-0.11,0-0.21,0-0.31,0
	c-0.24,0-0.44,0.19-0.44,0.42v7.63c-0.08,0.02-0.12,0.05-0.17,0.05c-2.01,0.05-4.04,0.11-4.62,0.12c-0.01,0-0.02,0-0.05,0
	c-0.26,0-0.3,0.01-0.51,0.01c0,0-0.55,0.01-1.19,0.01c-1.15,0-2.29-0.01-3.44-0.01h-0.04c-0.24,0-0.44-0.19-0.44-0.42v-7.26
	c0-0.23-0.2-0.42-0.44-0.42h-0.03c-2.94,0-5.88,0.01-8.83,0c-3.19-0.02-6.12-0.82-8.66-2.74c-2.59-1.96-4.13-4.55-4.79-7.62
	c-0.66-3.08-0.49-6.12,0.9-9c2-4.16,5.43-6.6,10.13-7.37c1.06-0.17,2.15-0.19,3.23-0.21c2.01-0.03,4.01-0.02,6.02-0.02
	c0.08,0,0.15,0.01,0.26,0.01v3.34c0,0.39,0.5,0.57,0.78,0.27c0.82-0.88,1.77-1.54,2.94-1.99c0.06,0.15,0.12,0.28,0.17,0.4
	c0.63,1.67,1.27,3.34,1.9,5.02c0.09,0.25,0.21,0.37,0.5,0.35c0.26-0.02,0.52-0.01,0.79-0.01c0.24,0,0.44,0.19,0.44,0.42v27.09
	c0,0.05,0,0.1,0,0.15c0.13,0,0.25,0,0.38-0.01 M28.79,28.04c0-0.23-0.2-0.42-0.44-0.42h-0.07c-2.14,0-4.27,0-6.41,0
	c-0.8,0-1.62-0.05-2.4,0.06c-2.91,0.4-5.86,3.7-4.55,7.44c0.74,2.09,2.16,3.3,4.47,3.48c1.05,0.08,2.11,0.06,3.16,0.06
	c1.97,0,3.93-0.01,5.9-0.02c0.11,0,0.23-0.02,0.35-0.03V28.04z M39.29,38.51c0.07,0.01,0.12,0.03,0.17,0.03
	c2.99-0.01,5.99,0,8.98-0.03c1.16-0.01,2.27-0.31,3.13-1.08c1.58-1.41,2.16-3.21,1.81-5.2c-0.51-2.92-3.15-4.85-6.25-4.77
	c-2.17,0.06-4.35,0.02-6.52,0.03c-0.29,0-0.59,0-0.88,0c-0.24,0-0.44,0.19-0.44,0.42V38.51z"/>
<path class="st0" d="M38.02,19.25c-0.22,0.6-0.42,1.17-0.63,1.73c-0.6,1.64-1.21,3.28-1.81,4.92c-0.08,0.22-0.18,0.32-0.44,0.31
	c-0.72-0.02-1.45-0.01-2.18,0c-0.21,0-0.33-0.04-0.41-0.25c-0.82-2.18-1.65-4.36-2.47-6.54c-0.02-0.04-0.02-0.09-0.04-0.17
	C32.7,19.25,35.34,19.25,38.02,19.25z M34.21,19.83c-0.55,0.03-0.92-0.07-1.33-0.03c-1.16,0.12-1.23,0.01-0.75,1.35
	c0.45,1.25,0.99,2.47,1.51,3.7c0.05,0.12,0.13,0.22,0.23,0.32c0.13,0.15,0.37,0.15,0.51,0.01c0.1-0.1,0.19-0.2,0.24-0.32
	c0.57-1.3,1.12-2.61,1.65-3.93c0.09-0.22,0.11-0.47,0.14-0.7c0.04-0.27-0.25-0.39-0.55-0.42C35.29,19.76,34.64,19.87,34.21,19.83z"
	/>
</svg>
